<svg xmlns="http://www.w3.org/2000/svg" width="17.253" height="19" viewBox="0 0 17.253 19">
  <g id="home" transform="translate(-3 -1.463)">
    <path id="Path_4413" data-name="Path 4413" d="M17.665,20.462H5.588A2.542,2.542,0,0,1,3,17.875V8.385a.785.785,0,0,1,.345-.69l7.764-6.039a.785.785,0,0,1,1.035,0L19.908,7.7a.785.785,0,0,1,.345.69v9.489A2.542,2.542,0,0,1,17.665,20.462ZM4.725,8.817v9.058a.815.815,0,0,0,.863.863H17.665a.815.815,0,0,0,.863-.863V8.817l-6.9-5.348Z" fill="#fff"/>
    <path id="Path_4414" data-name="Path 4414" d="M18.039,26.852a.815.815,0,0,1-.863-.863V18.225H13.725v7.764a.863.863,0,1,1-1.725,0V17.363a.815.815,0,0,1,.863-.863h5.176a.815.815,0,0,1,.863.863v8.627A.815.815,0,0,1,18.039,26.852Z" transform="translate(-3.824 -6.389)" fill="#fff"/>
  </g>
</svg>
