<svg id="Loan" xmlns="http://www.w3.org/2000/svg" width="20" height="18.182" viewBox="0 0 20 18.182">
  <g id="briefcase" transform="translate(-1.5 -3)">
    <path id="Path_4415" data-name="Path 4415" d="M18.773,23.545H4.227A2.679,2.679,0,0,1,1.5,20.818V11.727A2.679,2.679,0,0,1,4.227,9H18.773A2.679,2.679,0,0,1,21.5,11.727v9.091A2.679,2.679,0,0,1,18.773,23.545ZM4.227,10.818a.859.859,0,0,0-.909.909v9.091a.859.859,0,0,0,.909.909H18.773a.859.859,0,0,0,.909-.909V11.727a.859.859,0,0,0-.909-.909Z" transform="translate(0 -2.364)" fill="#fff"/>
    <path id="Path_4416" data-name="Path 4416" d="M18.682,21.182a.859.859,0,0,1-.909-.909V5.727a.859.859,0,0,0-.909-.909H13.227a.859.859,0,0,0-.909.909V20.273a.909.909,0,0,1-1.818,0V5.727A2.679,2.679,0,0,1,13.227,3h3.636a2.679,2.679,0,0,1,2.727,2.727V20.273A.859.859,0,0,1,18.682,21.182Z" transform="translate(-3.545)" fill="#fff"/>
  </g>
</svg>
