<svg id="Offer" xmlns="http://www.w3.org/2000/svg" width="19" height="19" viewBox="0 0 19 19">
  <g id="Group_2427" data-name="Group 2427" transform="translate(0 -446)">
    <path id="gear-wide" d="M10.6.863a1.141,1.141,0,0,0-2.213,0L8.307,1.2a1.14,1.14,0,0,1-1.926.516l-.243-.251A1.139,1.139,0,0,0,4.223,2.573l.095.337A1.14,1.14,0,0,1,2.91,4.319l-.337-.1A1.14,1.14,0,0,0,1.467,6.138l.251.243A1.14,1.14,0,0,1,1.2,8.308l-.339.084a1.141,1.141,0,0,0,0,2.213l.339.084a1.14,1.14,0,0,1,.516,1.926l-.251.243a1.139,1.139,0,0,0,1.106,1.915l.337-.095a1.14,1.14,0,0,1,1.41,1.41l-.1.336a1.14,1.14,0,0,0,1.915,1.106l.243-.251a1.14,1.14,0,0,1,1.926.516l.084.339a1.141,1.141,0,0,0,2.213,0l.084-.339a1.14,1.14,0,0,1,1.926-.516l.243.251a1.139,1.139,0,0,0,1.915-1.106l-.095-.337a1.14,1.14,0,0,1,1.41-1.41l.336.1a1.14,1.14,0,0,0,1.106-1.915l-.251-.243A1.14,1.14,0,0,1,17.8,10.69l.339-.084a1.141,1.141,0,0,0,0-2.213L17.8,8.308a1.14,1.14,0,0,1-.516-1.926l.251-.243a1.139,1.139,0,0,0-1.106-1.915l-.337.095a1.14,1.14,0,0,1-1.41-1.408l.1-.337a1.14,1.14,0,0,0-1.915-1.106l-.243.251A1.14,1.14,0,0,1,10.69,1.2ZM9.5,15.431A5.934,5.934,0,1,0,3.564,9.5,5.934,5.934,0,0,0,9.5,15.431Z" transform="translate(0.001 446.001)" fill="#fff" fill-rule="evenodd"/>
    <text id="_" data-name="%" transform="translate(6 459)" fill="#fff" font-size="8" font-family="Muli-Regular, Muli"><tspan x="0" y="0">%</tspan></text>
  </g>
</svg>
